<?xml version="1.0" standalone="no"?>
<!DOCTYPE svg PUBLIC "-//W3C//DTD SVG 20010904//EN"
 "http://www.w3.org/TR/2001/REC-SVG-20010904/DTD/svg10.dtd">
<svg version="1.0" xmlns="http://www.w3.org/2000/svg"
 width="700.000000pt" height="700.000000pt" viewBox="0 0 700.000000 700.000000"
 preserveAspectRatio="xMidYMid meet">
<metadata>
Created by potrace 1.14, written by Peter Selinger 2001-2017
</metadata>
<g transform="translate(0.000000,700.000000) scale(0.100000,-0.100000)"
fill="#000000" stroke="none">
<path d="M1770 6149 c-52 -4 -120 -15 -150 -24 -62 -20 -186 -80 -207 -101 -8
-8 -18 -14 -21 -14 -14 0 -150 -137 -190 -190 -47 -65 -93 -154 -118 -230 -16
-51 -18 -116 -19 -810 -2 -608 0 -760 11 -781 27 -54 41 -57 293 -58 249 -1
277 4 302 51 17 32 17 43 18 815 l1 722 1953 -2 1952 -2 2 -601 c3 -911 3
-911 24 -939 11 -12 32 -28 48 -33 16 -6 125 -10 242 -11 195 0 217 1 246 19
64 38 61 3 58 805 -1 519 -6 747 -14 790 -7 33 -35 107 -64 165 -44 92 -62
116 -141 195 -136 135 -282 214 -431 231 -76 9 -3667 11 -3795 3z"/>
<path d="M2815 4911 c-69 -17 -138 -68 -184 -135 -90 -132 -70 -292 50 -400
94 -84 38 -80 1029 -80 481 0 895 3 920 6 107 15 173 65 226 175 78 158 -11
360 -186 422 -27 10 -245 14 -930 16 -492 2 -908 0 -925 -4z"/>
<path d="M563 3673 c-48 -16 -131 -87 -162 -137 -11 -18 -27 -59 -34 -92 -34
-145 53 -299 201 -354 l56 -21 3025 3 3026 3 47 23 c58 29 118 89 149 151 19
37 24 61 24 126 -1 128 -46 205 -161 275 l-58 35 -3036 1 c-2598 1 -3041 -1
-3077 -13z"/>
<path d="M4030 2704 c-89 -24 -159 -65 -231 -134 -143 -139 -195 -315 -147
-495 96 -352 504 -510 810 -313 64 40 87 65 148 156 95 141 114 271 63 437
-37 119 -140 244 -252 304 -110 58 -272 77 -391 45z"/>
<path d="M621 2488 c-184 -29 -311 -241 -245 -408 37 -91 87 -146 168 -185 47
-23 60 -24 279 -25 127 0 232 -2 233 -3 1 -1 4 -137 7 -302 4 -248 7 -310 22
-355 47 -150 158 -304 290 -405 61 -46 175 -99 275 -127 68 -18 3899 -21 3953
-2 20 7 37 11 37 9 0 -9 116 37 192 77 137 71 248 198 328 377 41 91 43 99 49
225 3 71 6 208 5 302 -1 186 -7 209 -56 235 -26 14 -423 20 -472 7 -42 -11
-86 -56 -85 -87 1 -14 0 -136 0 -272 l-2 -245 -1952 0 -1952 1 -3 281 -2 280
392 3 c499 4 503 4 560 31 57 27 122 95 151 158 29 65 29 179 0 242 -34 72
-87 126 -160 162 l-66 32 -946 1 c-520 1 -970 -2 -1000 -7z"/>
</g>
</svg>
