<svg xmlns="http://www.w3.org/2000/svg" viewBox="0 0 13620 11420"><g id="l1YcQwyPFn28HdVNxOx1YI5" fill="rgb(23,46,66)"><g><path id="pSPMqsoFs" d="M3145 11063 c-227 -21 -513 -132 -705 -273 -268 -198 -505 -540 -575 -832 -30 -126 -35 -232 -35 -738 l0 -505 -412 3 c-275 2 -435 -1 -480 -8 -256 -44 -476 -316 -478 -592 0 -92 15 -159 59 -253 71 -152 192 -262 360 -328 71 -28 87 -31 266 -37 105 -5 948 -6 1875 -3 1417 4 1695 7 1750 19 197 44 370 199 446 399 35 93 43 239 20 339 -26 110 -89 216 -176 300 -79 75 -146 114 -245 143 -54 16 -138 18 -910 23 l-850 5 1 135 c1 74 2 321 3 548 l1 412 3800 0 3799 0 3 -523 3 -523 27 -42 c15 -22 49 -54 75 -69 l48 -28 427 -3 c291 -2 440 1 468 8 26 7 58 28 85 54 67 67 67 76 62 646 -5 576 -9 614 -93 775 -26 50 -55 113 -64 141 -25 70 -188 300 -285 402 -91 96 -192 166 -350 245 -139 69 -230 102 -375 135 l-115 27 -3695 1 c-2032 0 -3713 -1 -3735 -3z"></path><path id="pUGdspMY6" d="M7749 9090 c-226 -27 -441 -133 -607 -301 -294 -296 -382 -699 -235 -1074 181 -457 653 -723 1139 -640 180 31 299 79 429 174 251 183 397 433 435 746 14 109 6 200 -25 322 -33 127 -79 217 -180 358 -110 151 -132 174 -230 240 -215 144 -469 205 -726 175z"></path><path id="piTgN73UR" d="M890 6354 c-108 -37 -176 -79 -252 -156 -48 -49 -78 -91 -107 -150 -74 -150 -88 -267 -51 -412 30 -118 72 -189 170 -286 89 -89 156 -130 253 -156 77 -20 11756 -21 11833 0 83 22 194 86 266 155 111 104 166 213 190 376 24 171 -38 340 -177 481 -88 90 -157 131 -266 158 -60 15 -541 16 -5925 16 l-5859 -1 -75 -25z"></path><path id="p1DipqYUpY" d="M1970 4679 c-44 -18 -90 -59 -113 -102 l-22 -42 0 -1450 0 -1450 27 -101 c72 -268 203 -490 418 -705 229 -230 500 -376 793 -429 109 -20 157 -20 3751 -20 3874 0 3747 -1 3928 45 253 64 541 250 751 486 149 166 275 407 325 619 29 122 31 218 33 1580 l2 1405 -21 41 c-28 55 -93 109 -147 123 -68 17 -839 14 -888 -3 -56 -20 -107 -64 -128 -110 -18 -39 -19 -97 -19 -1501 l0 -1460 -3800 -3 -3800 -2 -2 32 c-1 18 -2 674 -3 1458 0 1351 -1 1427 -18 1465 -24 53 -63 93 -112 116 -37 17 -72 19 -485 18 -268 0 -455 -4 -470 -10z"></path><path id="pYBqV88Sn" d="M5234 3980 c-226 -59 -392 -228 -449 -455 -67 -270 117 -602 390 -701 130 -47 131 -47 1925 -37 1661 9 1686 10 1740 30 103 38 160 73 236 145 156 148 223 330 194 527 -13 93 -59 191 -139 299 -93 125 -182 174 -368 201 -49 8 -619 11 -1765 10 -1621 0 -1696 -1 -1764 -19z"></path></g></g></svg>